<svg id="Layer_1" data-name="Layer 1" xmlns="http://www.w3.org/2000/svg" viewBox="0 0 668.4 123.15"><title>Windows 11 logo - Brandlogos.net</title><path d="M291.18,420.66H276l-14.82-56.41-15,56.41H230.65l-20.37-73.32h13.78l14.69,58.32,16-58.32h13.92L283.79,406l14-58.66h13.31Z" transform="translate(-49.8 -322.43)" style="fill:#0078d4"/><path d="M330.54,352.71a6.4,6.4,0,0,1-2.19,5,7.85,7.85,0,0,1-10.43,0,6.48,6.48,0,0,1-2.14-5,6.7,6.7,0,0,1,2.14-5.06,7.4,7.4,0,0,1,5.22-2,7.14,7.14,0,0,1,5.27,2.09,6.75,6.75,0,0,1,2.14,5Zm-13.75,68V367.82h12.32v52.84Z" transform="translate(-49.8 -322.43)" style="fill:#0078d4"/><path d="M376.52,420.66V391.24c0-7.71-2.39-14.36-10.16-14.36s-12.62,7-12.62,14v29.78h-12V367.82h12v7.47h.21c4-6.19,9.77-8.36,17.32-8.36,5.67,0,10,1.4,13.14,5s4.5,9.11,4.5,16.48v32.23Z" transform="translate(-49.8 -322.43)" style="fill:#0078d4"/><path d="M437,420.66v-6.8h-.21c-3.82,6.43-11.63,7.92-17.08,7.92-16.18,0-22.12-12.57-22.12-25.94q0-13.3,6.62-21.28c4.45-5.36,10.4-7.67,17.84-7.67,11.58,0,14.73,6.45,14.73,6.45H437V342.75h12.5v77.91Zm.1-30.11c0-6.38-4.1-13.63-12.76-13.63-9.9,0-13.75,8.62-13.75,18.55,0,8.67,3.63,16.54,13.06,16.67,9.25,0,13.37-8.81,13.45-16.1Z" transform="translate(-49.8 -322.43)" style="fill:#0078d4"/><path d="M512.57,394c0,18.3-10.94,28.22-27.36,28.22-17.86,0-27-10.69-27-27.07,0-18.73,11-28.48,28.32-28.48C502.41,366.68,512.57,376.84,512.57,394Zm-12.83.42c0-8.14-2.89-17.19-13.91-17.19-10.57,0-14.68,7.87-14.68,17.51,0,10.47,4.93,17.13,14.6,17.13,10.36,0,13.91-8,14-17.45Z" transform="translate(-49.8 -322.43)" style="fill:#0078d4"/><path d="M578.68,420.66H565.09L554.7,382.42l-11.15,38.24H530.36L515,368h12.9l10,40.92L549.65,368h12.1l10.46,40.82L582,368h11.82Z" transform="translate(-49.8 -322.43)" style="fill:#0078d4"/><path d="M632.51,406c0,11.76-10.67,16.35-21.36,16.35a44.29,44.29,0,0,1-13.9-2.68V407.11a24.33,24.33,0,0,0,14.45,5.32c5.77,0,8.37-1.82,8.37-5.29.14-2.78-1.55-4.31-3.57-5.46A52.43,52.43,0,0,0,610,398.6a33.7,33.7,0,0,1-7.77-4.33,13.44,13.44,0,0,1-3.76-4.9,16,16,0,0,1-1.39-6.44c0-9.5,7.92-16.21,20.58-16.21,8.37,0,12,2.05,12,2.05v11.89s-5.95-4.11-12.13-4.15c-4.43,0-7.78,1.61-7.84,5.26,0,4.7,5.73,7,9.17,8.39,5,2,8.67,4.17,10.72,6.64s2.94,5,2.94,9.17Z" transform="translate(-49.8 -322.43)" style="fill:#0078d4"/><path d="M681,345.21v75.45h-12.6V360.47s-4.32,4-15.41,6.88V356.62c16.49-6.1,22.4-11.41,22.4-11.41Z" transform="translate(-49.8 -322.43)" style="fill:#0078d4"/><rect width="58.37" height="58.37" style="fill:#0078d4"/><rect x="64.77" width="58.37" height="58.37" style="fill:#0078d4"/><rect y="64.78" width="58.37" height="58.37" style="fill:#0078d4"/><rect x="64.77" y="64.78" width="58.37" height="58.37" style="fill:#0078d4"/><path d="M718.2,345.21v75.45h-12.6V360.47s-4.32,4-15.41,6.88V356.62c16.49-6.1,22.4-11.41,22.4-11.41Z" transform="translate(-49.8 -322.43)" style="fill:#0078d4"/></svg>